<mxfile host="Electron" agent="Mozilla/5.0 (Windows NT 10.0; Win64; x64) AppleWebKit/537.36 (KHTML, like Gecko) draw.io/26.2.2 Chrome/134.0.6998.178 Electron/35.1.2 Safari/537.36" version="26.2.2" pages="2">
  <diagram name="ページ1" id="endWf5aSDbJqNp78Nbtz">
    <mxGraphModel dx="1714" dy="990" grid="1" gridSize="10" guides="1" tooltips="1" connect="1" arrows="1" fold="1" page="1" pageScale="1" pageWidth="827" pageHeight="1169" math="0" shadow="0">
      <root>
        <mxCell id="0" />
        <mxCell id="1" parent="0" />
        <mxCell id="sV6DsISL8GSID5iwo02o-1" value="3" style="points=[[0,0],[0.25,0],[0.5,0],[0.75,0],[1,0],[1,0.25],[1,0.5],[1,0.75],[1,1],[0.75,1],[0.5,1],[0.25,1],[0,1],[0,0.75],[0,0.5],[0,0.25]];outlineConnect=0;gradientColor=none;html=1;whiteSpace=wrap;fontSize=12;fontStyle=0;container=1;pointerEvents=0;collapsible=0;recursiveResize=0;shape=mxgraph.aws4.group;grIcon=mxgraph.aws4.group_aws_cloud_alt;strokeColor=#232F3E;fillColor=none;verticalAlign=top;align=left;spacingLeft=30;fontColor=#232F3E;dashed=0;strokeWidth=2;" vertex="1" parent="1">
          <mxGeometry x="40" y="210" width="1200" height="750" as="geometry" />
        </mxCell>
        <mxCell id="sV6DsISL8GSID5iwo02o-2" value="Region: apne-1" style="points=[[0,0],[0.25,0],[0.5,0],[0.75,0],[1,0],[1,0.25],[1,0.5],[1,0.75],[1,1],[0.75,1],[0.5,1],[0.25,1],[0,1],[0,0.75],[0,0.5],[0,0.25]];outlineConnect=0;gradientColor=none;html=1;whiteSpace=wrap;fontSize=12;fontStyle=0;container=1;pointerEvents=0;collapsible=0;recursiveResize=0;shape=mxgraph.aws4.group;grIcon=mxgraph.aws4.group_region;strokeColor=#00A4A6;fillColor=none;verticalAlign=top;align=left;spacingLeft=30;fontColor=#147EBA;dashed=1;strokeWidth=2;" vertex="1" parent="sV6DsISL8GSID5iwo02o-1">
          <mxGeometry x="40" y="40" width="1160" height="640" as="geometry" />
        </mxCell>
        <mxCell id="sV6DsISL8GSID5iwo02o-3" value="VPC" style="points=[[0,0],[0.25,0],[0.5,0],[0.75,0],[1,0],[1,0.25],[1,0.5],[1,0.75],[1,1],[0.75,1],[0.5,1],[0.25,1],[0,1],[0,0.75],[0,0.5],[0,0.25]];outlineConnect=0;gradientColor=none;html=1;whiteSpace=wrap;fontSize=12;fontStyle=0;container=1;pointerEvents=0;collapsible=0;recursiveResize=0;shape=mxgraph.aws4.group;grIcon=mxgraph.aws4.group_vpc2;strokeColor=#8C4FFF;fillColor=none;verticalAlign=top;align=left;spacingLeft=30;fontColor=#AAB7B8;dashed=0;strokeWidth=2;" vertex="1" parent="sV6DsISL8GSID5iwo02o-2">
          <mxGeometry x="40" y="200" width="360" height="400" as="geometry" />
        </mxCell>
        <mxCell id="sV6DsISL8GSID5iwo02o-4" value="AZ-a" style="fillColor=none;strokeColor=#147EBA;dashed=1;verticalAlign=top;fontStyle=0;fontColor=#147EBA;whiteSpace=wrap;html=1;" vertex="1" parent="sV6DsISL8GSID5iwo02o-3">
          <mxGeometry x="40" y="80" width="120" height="280" as="geometry" />
        </mxCell>
        <mxCell id="sV6DsISL8GSID5iwo02o-5" value="AZ-c&lt;div&gt;（略）&lt;/div&gt;" style="fillColor=none;strokeColor=#147EBA;dashed=1;verticalAlign=top;fontStyle=0;fontColor=#147EBA;whiteSpace=wrap;html=1;" vertex="1" parent="sV6DsISL8GSID5iwo02o-3">
          <mxGeometry x="200" y="80" width="40" height="280" as="geometry" />
        </mxCell>
        <mxCell id="sV6DsISL8GSID5iwo02o-6" value="AZ-d&lt;div&gt;（略）&lt;/div&gt;" style="fillColor=none;strokeColor=#147EBA;dashed=1;verticalAlign=top;fontStyle=0;fontColor=#147EBA;whiteSpace=wrap;html=1;" vertex="1" parent="sV6DsISL8GSID5iwo02o-3">
          <mxGeometry x="280" y="80" width="40" height="280" as="geometry" />
        </mxCell>
        <mxCell id="sV6DsISL8GSID5iwo02o-10" style="edgeStyle=orthogonalEdgeStyle;rounded=0;orthogonalLoop=1;jettySize=auto;html=1;exitX=0.5;exitY=1;exitDx=0;exitDy=0;exitPerimeter=0;" edge="1" parent="sV6DsISL8GSID5iwo02o-3" source="sV6DsISL8GSID5iwo02o-8" target="sV6DsISL8GSID5iwo02o-9">
          <mxGeometry relative="1" as="geometry" />
        </mxCell>
        <mxCell id="sV6DsISL8GSID5iwo02o-8" value="EC2&lt;div&gt;OT-PF&lt;span style=&quot;color: light-dark(rgb(35, 47, 62), rgb(189, 199, 212));&quot;&gt;?&lt;/span&gt;&lt;/div&gt;" style="sketch=0;points=[[0,0,0],[0.25,0,0],[0.5,0,0],[0.75,0,0],[1,0,0],[0,1,0],[0.25,1,0],[0.5,1,0],[0.75,1,0],[1,1,0],[0,0.25,0],[0,0.5,0],[0,0.75,0],[1,0.25,0],[1,0.5,0],[1,0.75,0]];outlineConnect=0;fontColor=#232F3E;fillColor=#ED7100;strokeColor=#ffffff;dashed=0;verticalLabelPosition=bottom;verticalAlign=top;align=center;html=1;fontSize=12;fontStyle=0;aspect=fixed;shape=mxgraph.aws4.resourceIcon;resIcon=mxgraph.aws4.ec2;labelBackgroundColor=default;" vertex="1" parent="sV6DsISL8GSID5iwo02o-3">
          <mxGeometry x="80" y="150" width="40" height="40" as="geometry" />
        </mxCell>
        <mxCell id="sV6DsISL8GSID5iwo02o-9" value="EBS" style="sketch=0;points=[[0,0,0],[0.25,0,0],[0.5,0,0],[0.75,0,0],[1,0,0],[0,1,0],[0.25,1,0],[0.5,1,0],[0.75,1,0],[1,1,0],[0,0.25,0],[0,0.5,0],[0,0.75,0],[1,0.25,0],[1,0.5,0],[1,0.75,0]];outlineConnect=0;fontColor=#232F3E;fillColor=#7AA116;strokeColor=#ffffff;dashed=0;verticalLabelPosition=bottom;verticalAlign=top;align=center;html=1;fontSize=12;fontStyle=0;aspect=fixed;shape=mxgraph.aws4.resourceIcon;resIcon=mxgraph.aws4.elastic_block_store;labelBackgroundColor=default;" vertex="1" parent="sV6DsISL8GSID5iwo02o-3">
          <mxGeometry x="80" y="270" width="40" height="40" as="geometry" />
        </mxCell>
        <mxCell id="sV6DsISL8GSID5iwo02o-14" value="EC2コンテナなら自動でEBS付いてくる（LinuxのfilesystemがEBSで構築される）" style="shape=callout;whiteSpace=wrap;html=1;perimeter=calloutPerimeter;direction=north;size=30;position=0.42;" vertex="1" parent="sV6DsISL8GSID5iwo02o-3">
          <mxGeometry x="-70" y="160" width="160" height="120" as="geometry" />
        </mxCell>
        <mxCell id="sV6DsISL8GSID5iwo02o-7" value="EFS&lt;div&gt;無限容量ストレージ&lt;/div&gt;&lt;div&gt;$0.3GB/month&lt;/div&gt;" style="sketch=0;points=[[0,0,0],[0.25,0,0],[0.5,0,0],[0.75,0,0],[1,0,0],[0,1,0],[0.25,1,0],[0.5,1,0],[0.75,1,0],[1,1,0],[0,0.25,0],[0,0.5,0],[0,0.75,0],[1,0.25,0],[1,0.5,0],[1,0.75,0]];outlineConnect=0;fontColor=#232F3E;fillColor=#7AA116;strokeColor=#ffffff;dashed=0;verticalLabelPosition=bottom;verticalAlign=top;align=center;html=1;fontSize=12;fontStyle=0;aspect=fixed;shape=mxgraph.aws4.resourceIcon;resIcon=mxgraph.aws4.elastic_file_system;labelBackgroundColor=default;" vertex="1" parent="sV6DsISL8GSID5iwo02o-2">
          <mxGeometry x="480" y="510" width="40" height="40" as="geometry" />
        </mxCell>
        <mxCell id="sV6DsISL8GSID5iwo02o-11" value="nfs" style="edgeStyle=orthogonalEdgeStyle;rounded=0;orthogonalLoop=1;jettySize=auto;html=1;exitX=1;exitY=0.5;exitDx=0;exitDy=0;exitPerimeter=0;entryX=0;entryY=0.5;entryDx=0;entryDy=0;entryPerimeter=0;" edge="1" parent="sV6DsISL8GSID5iwo02o-2" source="sV6DsISL8GSID5iwo02o-8" target="sV6DsISL8GSID5iwo02o-7">
          <mxGeometry relative="1" as="geometry" />
        </mxCell>
        <mxCell id="sV6DsISL8GSID5iwo02o-13" value="S3&lt;div&gt;$0.023GB/month&lt;/div&gt;" style="sketch=0;points=[[0,0,0],[0.25,0,0],[0.5,0,0],[0.75,0,0],[1,0,0],[0,1,0],[0.25,1,0],[0.5,1,0],[0.75,1,0],[1,1,0],[0,0.25,0],[0,0.5,0],[0,0.75,0],[1,0.25,0],[1,0.5,0],[1,0.75,0]];outlineConnect=0;fontColor=#232F3E;fillColor=#7AA116;strokeColor=#ffffff;dashed=0;verticalLabelPosition=bottom;verticalAlign=top;align=center;html=1;fontSize=12;fontStyle=0;aspect=fixed;shape=mxgraph.aws4.resourceIcon;resIcon=mxgraph.aws4.s3;labelBackgroundColor=default;" vertex="1" parent="sV6DsISL8GSID5iwo02o-2">
          <mxGeometry x="560" y="350" width="40" height="40" as="geometry" />
        </mxCell>
        <mxCell id="sV6DsISL8GSID5iwo02o-16" value="&lt;div&gt;&lt;span style=&quot;background-color: transparent; color: light-dark(rgb(0, 0, 0), rgb(255, 255, 255));&quot;&gt;静的ホスティングサービスなため全公開。&lt;/span&gt;&lt;/div&gt;&lt;div&gt;&lt;span style=&quot;background-color: transparent; color: light-dark(rgb(0, 0, 0), rgb(255, 255, 255));&quot;&gt;各ファイルにURLを付与する必要がある。&lt;/span&gt;&lt;/div&gt;&lt;div&gt;連続ログを管理するのが得意&lt;/div&gt;&lt;div&gt;s3://nec/otpf-apne1/2025/1/2/3/2025-01-02T03-04.gzip&lt;/div&gt;&lt;div&gt;&lt;div&gt;s3://nec/otpf-apne1/2025/1/2/3/2025-01-02T03-05.gzip&lt;/div&gt;&lt;/div&gt;&lt;div&gt;&lt;br&gt;&lt;/div&gt;&lt;div&gt;&lt;div&gt;特定のアカウント以外からのアクセス禁止ポリシー必須&lt;/div&gt;&lt;/div&gt;" style="shape=callout;whiteSpace=wrap;html=1;perimeter=calloutPerimeter;direction=east;size=30;position=0.09;align=left;position2=0.08;" vertex="1" parent="sV6DsISL8GSID5iwo02o-2">
          <mxGeometry x="640" y="210" width="320" height="150" as="geometry" />
        </mxCell>
        <mxCell id="sV6DsISL8GSID5iwo02o-19" value="&lt;div&gt;マウントして使う。&lt;/div&gt;/mnt/efs/xxx&lt;div&gt;EC2にsshでログインしないと見れない&lt;/div&gt;" style="shape=callout;whiteSpace=wrap;html=1;perimeter=calloutPerimeter;direction=south;size=30;position=0.42;" vertex="1" parent="sV6DsISL8GSID5iwo02o-2">
          <mxGeometry x="529.48" y="500" width="150" height="60" as="geometry" />
        </mxCell>
        <mxCell id="sV6DsISL8GSID5iwo02o-42" style="edgeStyle=orthogonalEdgeStyle;rounded=0;orthogonalLoop=1;jettySize=auto;html=1;exitX=0;exitY=0.5;exitDx=0;exitDy=0;exitPerimeter=0;" edge="1" parent="sV6DsISL8GSID5iwo02o-2" source="sV6DsISL8GSID5iwo02o-39" target="sV6DsISL8GSID5iwo02o-40">
          <mxGeometry relative="1" as="geometry" />
        </mxCell>
        <mxCell id="sV6DsISL8GSID5iwo02o-39" value="athena" style="sketch=0;points=[[0,0,0],[0.25,0,0],[0.5,0,0],[0.75,0,0],[1,0,0],[0,1,0],[0.25,1,0],[0.5,1,0],[0.75,1,0],[1,1,0],[0,0.25,0],[0,0.5,0],[0,0.75,0],[1,0.25,0],[1,0.5,0],[1,0.75,0]];outlineConnect=0;fontColor=#232F3E;fillColor=#8C4FFF;strokeColor=#ffffff;dashed=0;verticalLabelPosition=bottom;verticalAlign=top;align=center;html=1;fontSize=12;fontStyle=0;aspect=fixed;shape=mxgraph.aws4.resourceIcon;resIcon=mxgraph.aws4.athena;labelBackgroundColor=default;" vertex="1" parent="sV6DsISL8GSID5iwo02o-2">
          <mxGeometry x="800" y="350" width="40" height="40" as="geometry" />
        </mxCell>
        <mxCell id="sV6DsISL8GSID5iwo02o-43" style="edgeStyle=orthogonalEdgeStyle;rounded=0;orthogonalLoop=1;jettySize=auto;html=1;exitX=0;exitY=0.5;exitDx=0;exitDy=0;exitPerimeter=0;entryX=1;entryY=0.5;entryDx=0;entryDy=0;entryPerimeter=0;" edge="1" parent="sV6DsISL8GSID5iwo02o-2" source="sV6DsISL8GSID5iwo02o-40" target="sV6DsISL8GSID5iwo02o-13">
          <mxGeometry relative="1" as="geometry" />
        </mxCell>
        <mxCell id="sV6DsISL8GSID5iwo02o-40" value="Glue" style="sketch=0;points=[[0,0,0],[0.25,0,0],[0.5,0,0],[0.75,0,0],[1,0,0],[0,1,0],[0.25,1,0],[0.5,1,0],[0.75,1,0],[1,1,0],[0,0.25,0],[0,0.5,0],[0,0.75,0],[1,0.25,0],[1,0.5,0],[1,0.75,0]];outlineConnect=0;fontColor=#232F3E;fillColor=#8C4FFF;strokeColor=#ffffff;dashed=0;verticalLabelPosition=bottom;verticalAlign=top;align=center;html=1;fontSize=12;fontStyle=0;aspect=fixed;shape=mxgraph.aws4.resourceIcon;resIcon=mxgraph.aws4.glue;labelBackgroundColor=default;" vertex="1" parent="sV6DsISL8GSID5iwo02o-2">
          <mxGeometry x="680" y="350" width="40" height="40" as="geometry" />
        </mxCell>
        <mxCell id="vJ7PuUnyNGNekPnDm7Rh-1" value="cloudwatch" style="sketch=0;points=[[0,0,0],[0.25,0,0],[0.5,0,0],[0.75,0,0],[1,0,0],[0,1,0],[0.25,1,0],[0.5,1,0],[0.75,1,0],[1,1,0],[0,0.25,0],[0,0.5,0],[0,0.75,0],[1,0.25,0],[1,0.5,0],[1,0.75,0]];points=[[0,0,0],[0.25,0,0],[0.5,0,0],[0.75,0,0],[1,0,0],[0,1,0],[0.25,1,0],[0.5,1,0],[0.75,1,0],[1,1,0],[0,0.25,0],[0,0.5,0],[0,0.75,0],[1,0.25,0],[1,0.5,0],[1,0.75,0]];outlineConnect=0;fontColor=#232F3E;fillColor=#E7157B;strokeColor=#ffffff;dashed=0;verticalLabelPosition=bottom;verticalAlign=top;align=center;html=1;fontSize=12;fontStyle=0;aspect=fixed;shape=mxgraph.aws4.resourceIcon;resIcon=mxgraph.aws4.cloudwatch_2;" vertex="1" parent="sV6DsISL8GSID5iwo02o-2">
          <mxGeometry x="520" y="110" width="40" height="40" as="geometry" />
        </mxCell>
        <mxCell id="kmtaC6BT1ogIAG1-wb_C-3" value="HTTP" style="edgeStyle=orthogonalEdgeStyle;rounded=0;orthogonalLoop=1;jettySize=auto;html=1;entryX=0;entryY=0.5;entryDx=0;entryDy=0;entryPerimeter=0;" edge="1" parent="sV6DsISL8GSID5iwo02o-2" source="sV6DsISL8GSID5iwo02o-8" target="kmtaC6BT1ogIAG1-wb_C-4">
          <mxGeometry x="0.5897" relative="1" as="geometry">
            <mxPoint as="offset" />
          </mxGeometry>
        </mxCell>
        <mxCell id="kmtaC6BT1ogIAG1-wb_C-4" value="firehose" style="sketch=0;points=[[0,0,0],[0.25,0,0],[0.5,0,0],[0.75,0,0],[1,0,0],[0,1,0],[0.25,1,0],[0.5,1,0],[0.75,1,0],[1,1,0],[0,0.25,0],[0,0.5,0],[0,0.75,0],[1,0.25,0],[1,0.5,0],[1,0.75,0]];outlineConnect=0;fontColor=#232F3E;fillColor=#8C4FFF;strokeColor=#ffffff;dashed=0;verticalLabelPosition=bottom;verticalAlign=top;align=center;html=1;fontSize=12;fontStyle=0;aspect=fixed;shape=mxgraph.aws4.resourceIcon;resIcon=mxgraph.aws4.kinesis_data_firehose;" vertex="1" parent="sV6DsISL8GSID5iwo02o-2">
          <mxGeometry x="440" y="350" width="40" height="40" as="geometry" />
        </mxCell>
        <mxCell id="kmtaC6BT1ogIAG1-wb_C-6" style="edgeStyle=orthogonalEdgeStyle;rounded=0;orthogonalLoop=1;jettySize=auto;html=1;exitX=1;exitY=0.5;exitDx=0;exitDy=0;exitPerimeter=0;entryX=0;entryY=0.5;entryDx=0;entryDy=0;entryPerimeter=0;" edge="1" parent="sV6DsISL8GSID5iwo02o-2" source="kmtaC6BT1ogIAG1-wb_C-4" target="sV6DsISL8GSID5iwo02o-13">
          <mxGeometry relative="1" as="geometry" />
        </mxCell>
        <mxCell id="kmtaC6BT1ogIAG1-wb_C-7" value="HTTP" style="edgeStyle=orthogonalEdgeStyle;rounded=0;orthogonalLoop=1;jettySize=auto;html=1;exitX=0.5;exitY=0;exitDx=0;exitDy=0;exitPerimeter=0;entryX=0.5;entryY=0;entryDx=0;entryDy=0;entryPerimeter=0;" edge="1" parent="sV6DsISL8GSID5iwo02o-2" source="sV6DsISL8GSID5iwo02o-8" target="sV6DsISL8GSID5iwo02o-13">
          <mxGeometry relative="1" as="geometry" />
        </mxCell>
        <mxCell id="kmtaC6BT1ogIAG1-wb_C-8" style="edgeStyle=orthogonalEdgeStyle;rounded=0;orthogonalLoop=1;jettySize=auto;html=1;exitX=0.5;exitY=0;exitDx=0;exitDy=0;exitPerimeter=0;entryX=0;entryY=0.5;entryDx=0;entryDy=0;entryPerimeter=0;" edge="1" parent="sV6DsISL8GSID5iwo02o-2" source="sV6DsISL8GSID5iwo02o-8" target="vJ7PuUnyNGNekPnDm7Rh-1">
          <mxGeometry relative="1" as="geometry" />
        </mxCell>
        <mxCell id="kmtaC6BT1ogIAG1-wb_C-34" value="&lt;div&gt;S3のログをAWS上で検索したい場合はAthenaにつなぐ&lt;/div&gt;&lt;div&gt;json形式のログである必要がある。&lt;/div&gt;" style="shape=callout;whiteSpace=wrap;html=1;perimeter=calloutPerimeter;direction=west;size=40;position=0.88;align=left;position2=0.94;base=18;" vertex="1" parent="sV6DsISL8GSID5iwo02o-2">
          <mxGeometry x="740" y="390" width="320" height="100" as="geometry" />
        </mxCell>
        <mxCell id="kmtaC6BT1ogIAG1-wb_C-35" value="ログストリーミングする場合はfirehose経由&lt;div&gt;ファイルアップロードならS3直接&lt;/div&gt;" style="shape=callout;whiteSpace=wrap;html=1;perimeter=calloutPerimeter;direction=east;size=20;position=0.09;align=left;position2=0.09;base=18;" vertex="1" parent="sV6DsISL8GSID5iwo02o-2">
          <mxGeometry x="450" y="240" width="173" height="100" as="geometry" />
        </mxCell>
        <mxCell id="kmtaC6BT1ogIAG1-wb_C-36" value="metrics filter" style="sketch=0;outlineConnect=0;fontColor=#232F3E;gradientColor=none;fillColor=#E7157B;strokeColor=none;dashed=0;verticalLabelPosition=bottom;verticalAlign=top;align=center;html=1;fontSize=12;fontStyle=0;aspect=fixed;pointerEvents=1;shape=mxgraph.aws4.cloudwatch_metrics_insights;" vertex="1" parent="sV6DsISL8GSID5iwo02o-2">
          <mxGeometry x="640" y="110" width="39.48" height="40" as="geometry" />
        </mxCell>
        <mxCell id="kmtaC6BT1ogIAG1-wb_C-37" style="edgeStyle=orthogonalEdgeStyle;rounded=0;orthogonalLoop=1;jettySize=auto;html=1;entryX=1;entryY=0.5;entryDx=0;entryDy=0;entryPerimeter=0;" edge="1" parent="sV6DsISL8GSID5iwo02o-2" source="kmtaC6BT1ogIAG1-wb_C-36" target="vJ7PuUnyNGNekPnDm7Rh-1">
          <mxGeometry relative="1" as="geometry" />
        </mxCell>
        <mxCell id="kmtaC6BT1ogIAG1-wb_C-38" value="1分間でERRORが10回とか&lt;div&gt;1分間ログに更新が無いとか&lt;/div&gt;&lt;div&gt;条件付けてアラート発呼&lt;/div&gt;" style="shape=callout;whiteSpace=wrap;html=1;perimeter=calloutPerimeter;direction=east;size=20;position=0.09;align=left;position2=0.09;base=18;" vertex="1" parent="sV6DsISL8GSID5iwo02o-2">
          <mxGeometry x="667" y="50" width="173" height="80" as="geometry" />
        </mxCell>
      </root>
    </mxGraphModel>
  </diagram>
  <diagram id="RnuVD9jlVKnKn9zMuR-l" name="S3">
    <mxGraphModel dx="1200" dy="693" grid="1" gridSize="10" guides="1" tooltips="1" connect="1" arrows="1" fold="1" page="1" pageScale="1" pageWidth="827" pageHeight="1169" math="0" shadow="0">
      <root>
        <mxCell id="0" />
        <mxCell id="1" parent="0" />
        <mxCell id="u8kjNr9BLdupTknPOJ0_-1" value="AWS Cloud" style="points=[[0,0],[0.25,0],[0.5,0],[0.75,0],[1,0],[1,0.25],[1,0.5],[1,0.75],[1,1],[0.75,1],[0.5,1],[0.25,1],[0,1],[0,0.75],[0,0.5],[0,0.25]];outlineConnect=0;gradientColor=none;html=1;whiteSpace=wrap;fontSize=12;fontStyle=0;container=1;pointerEvents=0;collapsible=0;recursiveResize=0;shape=mxgraph.aws4.group;grIcon=mxgraph.aws4.group_aws_cloud_alt;strokeColor=#232F3E;fillColor=none;verticalAlign=top;align=left;spacingLeft=30;fontColor=#232F3E;dashed=0;strokeWidth=2;" vertex="1" parent="1">
          <mxGeometry x="40" y="200" width="1080" height="750" as="geometry" />
        </mxCell>
        <mxCell id="u8kjNr9BLdupTknPOJ0_-2" value="Region: apne-1" style="points=[[0,0],[0.25,0],[0.5,0],[0.75,0],[1,0],[1,0.25],[1,0.5],[1,0.75],[1,1],[0.75,1],[0.5,1],[0.25,1],[0,1],[0,0.75],[0,0.5],[0,0.25]];outlineConnect=0;gradientColor=none;html=1;whiteSpace=wrap;fontSize=12;fontStyle=0;container=1;pointerEvents=0;collapsible=0;recursiveResize=0;shape=mxgraph.aws4.group;grIcon=mxgraph.aws4.group_region;strokeColor=#00A4A6;fillColor=none;verticalAlign=top;align=left;spacingLeft=30;fontColor=#147EBA;dashed=1;strokeWidth=2;" vertex="1" parent="u8kjNr9BLdupTknPOJ0_-1">
          <mxGeometry x="40" y="40" width="1000" height="640" as="geometry" />
        </mxCell>
        <mxCell id="u8kjNr9BLdupTknPOJ0_-3" value="VPC" style="points=[[0,0],[0.25,0],[0.5,0],[0.75,0],[1,0],[1,0.25],[1,0.5],[1,0.75],[1,1],[0.75,1],[0.5,1],[0.25,1],[0,1],[0,0.75],[0,0.5],[0,0.25]];outlineConnect=0;gradientColor=none;html=1;whiteSpace=wrap;fontSize=12;fontStyle=0;container=1;pointerEvents=0;collapsible=0;recursiveResize=0;shape=mxgraph.aws4.group;grIcon=mxgraph.aws4.group_vpc2;strokeColor=#8C4FFF;fillColor=none;verticalAlign=top;align=left;spacingLeft=30;fontColor=#AAB7B8;dashed=0;strokeWidth=2;" vertex="1" parent="u8kjNr9BLdupTknPOJ0_-2">
          <mxGeometry x="40" y="200" width="360" height="400" as="geometry" />
        </mxCell>
        <mxCell id="u8kjNr9BLdupTknPOJ0_-4" value="AZ-a" style="fillColor=none;strokeColor=#147EBA;dashed=1;verticalAlign=top;fontStyle=0;fontColor=#147EBA;whiteSpace=wrap;html=1;" vertex="1" parent="u8kjNr9BLdupTknPOJ0_-3">
          <mxGeometry x="40" y="80" width="120" height="280" as="geometry" />
        </mxCell>
        <mxCell id="u8kjNr9BLdupTknPOJ0_-5" value="AZ-c&lt;div&gt;（略）&lt;/div&gt;" style="fillColor=none;strokeColor=#147EBA;dashed=1;verticalAlign=top;fontStyle=0;fontColor=#147EBA;whiteSpace=wrap;html=1;" vertex="1" parent="u8kjNr9BLdupTknPOJ0_-3">
          <mxGeometry x="200" y="80" width="40" height="280" as="geometry" />
        </mxCell>
        <mxCell id="u8kjNr9BLdupTknPOJ0_-6" value="AZ-d&lt;div&gt;（略）&lt;/div&gt;" style="fillColor=none;strokeColor=#147EBA;dashed=1;verticalAlign=top;fontStyle=0;fontColor=#147EBA;whiteSpace=wrap;html=1;" vertex="1" parent="u8kjNr9BLdupTknPOJ0_-3">
          <mxGeometry x="280" y="80" width="40" height="280" as="geometry" />
        </mxCell>
        <mxCell id="u8kjNr9BLdupTknPOJ0_-7" style="edgeStyle=orthogonalEdgeStyle;rounded=0;orthogonalLoop=1;jettySize=auto;html=1;exitX=0.5;exitY=1;exitDx=0;exitDy=0;exitPerimeter=0;" edge="1" parent="u8kjNr9BLdupTknPOJ0_-3" source="u8kjNr9BLdupTknPOJ0_-8" target="u8kjNr9BLdupTknPOJ0_-9">
          <mxGeometry relative="1" as="geometry" />
        </mxCell>
        <mxCell id="u8kjNr9BLdupTknPOJ0_-8" value="EC2&lt;div&gt;OT-PF&lt;span style=&quot;color: light-dark(rgb(35, 47, 62), rgb(189, 199, 212));&quot;&gt;?&lt;/span&gt;&lt;/div&gt;" style="sketch=0;points=[[0,0,0],[0.25,0,0],[0.5,0,0],[0.75,0,0],[1,0,0],[0,1,0],[0.25,1,0],[0.5,1,0],[0.75,1,0],[1,1,0],[0,0.25,0],[0,0.5,0],[0,0.75,0],[1,0.25,0],[1,0.5,0],[1,0.75,0]];outlineConnect=0;fontColor=#232F3E;fillColor=#ED7100;strokeColor=#ffffff;dashed=0;verticalLabelPosition=bottom;verticalAlign=top;align=center;html=1;fontSize=12;fontStyle=0;aspect=fixed;shape=mxgraph.aws4.resourceIcon;resIcon=mxgraph.aws4.ec2;labelBackgroundColor=default;" vertex="1" parent="u8kjNr9BLdupTknPOJ0_-3">
          <mxGeometry x="80" y="120" width="40" height="40" as="geometry" />
        </mxCell>
        <mxCell id="u8kjNr9BLdupTknPOJ0_-9" value="EBS" style="sketch=0;points=[[0,0,0],[0.25,0,0],[0.5,0,0],[0.75,0,0],[1,0,0],[0,1,0],[0.25,1,0],[0.5,1,0],[0.75,1,0],[1,1,0],[0,0.25,0],[0,0.5,0],[0,0.75,0],[1,0.25,0],[1,0.5,0],[1,0.75,0]];outlineConnect=0;fontColor=#232F3E;fillColor=#7AA116;strokeColor=#ffffff;dashed=0;verticalLabelPosition=bottom;verticalAlign=top;align=center;html=1;fontSize=12;fontStyle=0;aspect=fixed;shape=mxgraph.aws4.resourceIcon;resIcon=mxgraph.aws4.elastic_block_store;labelBackgroundColor=default;" vertex="1" parent="u8kjNr9BLdupTknPOJ0_-3">
          <mxGeometry x="80" y="240" width="40" height="40" as="geometry" />
        </mxCell>
        <mxCell id="u8kjNr9BLdupTknPOJ0_-10" value="EC2コンテナなら自動でEBS付いてくる（LinuxのfilesystemがEBSで構築される）" style="shape=callout;whiteSpace=wrap;html=1;perimeter=calloutPerimeter;direction=north;size=30;position=0.42;" vertex="1" parent="u8kjNr9BLdupTknPOJ0_-3">
          <mxGeometry x="-70" y="160" width="160" height="120" as="geometry" />
        </mxCell>
        <mxCell id="u8kjNr9BLdupTknPOJ0_-11" value="EFS&lt;div&gt;無限容量ストレージ&lt;/div&gt;&lt;div&gt;$0.3GB/month&lt;/div&gt;" style="sketch=0;points=[[0,0,0],[0.25,0,0],[0.5,0,0],[0.75,0,0],[1,0,0],[0,1,0],[0.25,1,0],[0.5,1,0],[0.75,1,0],[1,1,0],[0,0.25,0],[0,0.5,0],[0,0.75,0],[1,0.25,0],[1,0.5,0],[1,0.75,0]];outlineConnect=0;fontColor=#232F3E;fillColor=#7AA116;strokeColor=#ffffff;dashed=0;verticalLabelPosition=bottom;verticalAlign=top;align=center;html=1;fontSize=12;fontStyle=0;aspect=fixed;shape=mxgraph.aws4.resourceIcon;resIcon=mxgraph.aws4.elastic_file_system;labelBackgroundColor=default;" vertex="1" parent="u8kjNr9BLdupTknPOJ0_-2">
          <mxGeometry x="480" y="320" width="40" height="40" as="geometry" />
        </mxCell>
        <mxCell id="u8kjNr9BLdupTknPOJ0_-12" value="nfs" style="edgeStyle=orthogonalEdgeStyle;rounded=0;orthogonalLoop=1;jettySize=auto;html=1;exitX=1;exitY=0.5;exitDx=0;exitDy=0;exitPerimeter=0;entryX=0;entryY=0.5;entryDx=0;entryDy=0;entryPerimeter=0;" edge="1" parent="u8kjNr9BLdupTknPOJ0_-2" source="u8kjNr9BLdupTknPOJ0_-8" target="u8kjNr9BLdupTknPOJ0_-11">
          <mxGeometry relative="1" as="geometry" />
        </mxCell>
        <mxCell id="u8kjNr9BLdupTknPOJ0_-13" value="S3&lt;div&gt;$0.023GB/month&lt;/div&gt;" style="sketch=0;points=[[0,0,0],[0.25,0,0],[0.5,0,0],[0.75,0,0],[1,0,0],[0,1,0],[0.25,1,0],[0.5,1,0],[0.75,1,0],[1,1,0],[0,0.25,0],[0,0.5,0],[0,0.75,0],[1,0.25,0],[1,0.5,0],[1,0.75,0]];outlineConnect=0;fontColor=#232F3E;fillColor=#7AA116;strokeColor=#ffffff;dashed=0;verticalLabelPosition=bottom;verticalAlign=top;align=center;html=1;fontSize=12;fontStyle=0;aspect=fixed;shape=mxgraph.aws4.resourceIcon;resIcon=mxgraph.aws4.s3;labelBackgroundColor=default;" vertex="1" parent="u8kjNr9BLdupTknPOJ0_-2">
          <mxGeometry x="680" y="320" width="40" height="40" as="geometry" />
        </mxCell>
        <mxCell id="u8kjNr9BLdupTknPOJ0_-14" value="deny policy" style="sketch=0;outlineConnect=0;fontColor=#232F3E;gradientColor=none;fillColor=#7AA116;strokeColor=none;dashed=0;verticalLabelPosition=bottom;verticalAlign=top;align=center;html=1;fontSize=12;fontStyle=0;aspect=fixed;pointerEvents=1;shape=mxgraph.aws4.policy;labelBackgroundColor=default;" vertex="1" parent="u8kjNr9BLdupTknPOJ0_-2">
          <mxGeometry x="710" y="300" width="46.57" height="40" as="geometry" />
        </mxCell>
        <mxCell id="u8kjNr9BLdupTknPOJ0_-20" style="edgeStyle=orthogonalEdgeStyle;rounded=0;orthogonalLoop=1;jettySize=auto;html=1;exitX=0.5;exitY=1;exitDx=0;exitDy=0;exitPerimeter=0;" edge="1" parent="u8kjNr9BLdupTknPOJ0_-2" source="u8kjNr9BLdupTknPOJ0_-21" target="u8kjNr9BLdupTknPOJ0_-23">
          <mxGeometry relative="1" as="geometry" />
        </mxCell>
        <mxCell id="u8kjNr9BLdupTknPOJ0_-21" value="athena" style="sketch=0;points=[[0,0,0],[0.25,0,0],[0.5,0,0],[0.75,0,0],[1,0,0],[0,1,0],[0.25,1,0],[0.5,1,0],[0.75,1,0],[1,1,0],[0,0.25,0],[0,0.5,0],[0,0.75,0],[1,0.25,0],[1,0.5,0],[1,0.75,0]];outlineConnect=0;fontColor=#232F3E;fillColor=#8C4FFF;strokeColor=#ffffff;dashed=0;verticalLabelPosition=bottom;verticalAlign=top;align=center;html=1;fontSize=12;fontStyle=0;aspect=fixed;shape=mxgraph.aws4.resourceIcon;resIcon=mxgraph.aws4.athena;labelBackgroundColor=default;" vertex="1" parent="u8kjNr9BLdupTknPOJ0_-2">
          <mxGeometry x="680" y="120" width="40" height="40" as="geometry" />
        </mxCell>
        <mxCell id="u8kjNr9BLdupTknPOJ0_-22" style="edgeStyle=orthogonalEdgeStyle;rounded=0;orthogonalLoop=1;jettySize=auto;html=1;exitX=0.5;exitY=1;exitDx=0;exitDy=0;exitPerimeter=0;entryX=0.5;entryY=0;entryDx=0;entryDy=0;entryPerimeter=0;" edge="1" parent="u8kjNr9BLdupTknPOJ0_-2" source="u8kjNr9BLdupTknPOJ0_-23" target="u8kjNr9BLdupTknPOJ0_-13">
          <mxGeometry relative="1" as="geometry" />
        </mxCell>
        <mxCell id="u8kjNr9BLdupTknPOJ0_-23" value="Glue" style="sketch=0;points=[[0,0,0],[0.25,0,0],[0.5,0,0],[0.75,0,0],[1,0,0],[0,1,0],[0.25,1,0],[0.5,1,0],[0.75,1,0],[1,1,0],[0,0.25,0],[0,0.5,0],[0,0.75,0],[1,0.25,0],[1,0.5,0],[1,0.75,0]];outlineConnect=0;fontColor=#232F3E;fillColor=#8C4FFF;strokeColor=#ffffff;dashed=0;verticalLabelPosition=bottom;verticalAlign=top;align=center;html=1;fontSize=12;fontStyle=0;aspect=fixed;shape=mxgraph.aws4.resourceIcon;resIcon=mxgraph.aws4.glue;labelBackgroundColor=default;" vertex="1" parent="u8kjNr9BLdupTknPOJ0_-2">
          <mxGeometry x="680" y="200" width="40" height="40" as="geometry" />
        </mxCell>
        <mxCell id="u8kjNr9BLdupTknPOJ0_-25" value="EventBridge" style="sketch=0;points=[[0,0,0],[0.25,0,0],[0.5,0,0],[0.75,0,0],[1,0,0],[0,1,0],[0.25,1,0],[0.5,1,0],[0.75,1,0],[1,1,0],[0,0.25,0],[0,0.5,0],[0,0.75,0],[1,0.25,0],[1,0.5,0],[1,0.75,0]];outlineConnect=0;fontColor=#232F3E;fillColor=#E7157B;strokeColor=#ffffff;dashed=0;verticalLabelPosition=bottom;verticalAlign=top;align=center;html=1;fontSize=12;fontStyle=0;aspect=fixed;shape=mxgraph.aws4.resourceIcon;resIcon=mxgraph.aws4.eventbridge;" vertex="1" parent="u8kjNr9BLdupTknPOJ0_-2">
          <mxGeometry x="440" y="80" width="40" height="40" as="geometry" />
        </mxCell>
      </root>
    </mxGraphModel>
  </diagram>
</mxfile>
